<?xml version="1.0" encoding="utf-8"?>
<!-- Generator: Adobe Illustrator 23.0.3, SVG Export Plug-In . SVG Version: 6.00 Build 0)  -->
<svg version="1.1" id="Capa_1" xmlns="http://www.w3.org/2000/svg" xmlns:xlink="http://www.w3.org/1999/xlink" x="0px" y="0px"
	 viewBox="0 0 512 512" style="enable-background:new 0 0 512 512;" xml:space="preserve">
<style type="text/css">
	.st0{fill:#135175;}
</style>
<path class="st0" d="M375.7,330.5C400.9,296.1,416,253.8,416,208C416,93.3,322.7,0,208,0S0,93.3,0,208s93.3,208,208,208
	c45.8,0,88.1-15.1,122.5-40.3L466.8,512l45.2-45.2C512,466.7,375.7,330.5,375.7,330.5L375.7,330.5z M208,352
	c-79.4,0-144-64.6-144-144S128.6,64,208,64s144,64.6,144,144S287.4,352,208,352L208,352z"/>
<path class="st0" d="M376.7,330.5C401.9,296.1,417,253.8,417,208C417,93.3,323.7,0,209,0S1,93.3,1,208s93.3,208,208,208
	c45.8,0,88.1-15.1,122.5-40.3L467.8,512l45.2-45.2C513,466.7,376.7,330.5,376.7,330.5L376.7,330.5z M209,352
	c-79.4,0-144-64.6-144-144S129.6,64,209,64s144,64.6,144,144S288.4,352,209,352L209,352z"/>
</svg>
